<svg xmlns="http://www.w3.org/2000/svg" width="22.157" height="29.543" viewBox="0 0 22.157 29.543">
  <path id="Icon_awesome-clipboard-list" data-name="Icon awesome-clipboard-list" d="M19.388,3.693H14.771a3.693,3.693,0,0,0-7.386,0H2.77A2.77,2.77,0,0,0,0,6.463V26.773a2.77,2.77,0,0,0,2.77,2.77H19.388a2.77,2.77,0,0,0,2.77-2.77V6.463A2.77,2.77,0,0,0,19.388,3.693ZM5.539,24.465A1.385,1.385,0,1,1,6.924,23.08,1.382,1.382,0,0,1,5.539,24.465Zm0-5.539a1.385,1.385,0,1,1,1.385-1.385A1.382,1.382,0,0,1,5.539,18.926Zm0-5.539A1.385,1.385,0,1,1,6.924,12,1.382,1.382,0,0,1,5.539,13.387ZM11.079,2.308A1.385,1.385,0,1,1,9.694,3.693,1.382,1.382,0,0,1,11.079,2.308Zm7.386,21.234A.463.463,0,0,1,18,24H9.694a.463.463,0,0,1-.462-.462v-.923a.463.463,0,0,1,.462-.462H18a.463.463,0,0,1,.462.462Zm0-5.539a.463.463,0,0,1-.462.462H9.694A.463.463,0,0,1,9.232,18V17.08a.463.463,0,0,1,.462-.462H18a.463.463,0,0,1,.462.462Zm0-5.539a.463.463,0,0,1-.462.462H9.694a.463.463,0,0,1-.462-.462V11.54a.463.463,0,0,1,.462-.462H18a.463.463,0,0,1,.462.462Z" fill="#7f7f7f"/>
</svg>
