<?xml version="1.0" encoding="utf-8"?>
<!-- Generator: Adobe Illustrator 26.0.0, SVG Export Plug-In . SVG Version: 6.00 Build 0)  -->
<svg version="1.1" id="livetype" xmlns="http://www.w3.org/2000/svg" xmlns:xlink="http://www.w3.org/1999/xlink" x="0px" y="0px"
	 viewBox="0 0 124.2 40" style="enable-background:new 0 0 124.2 40;" xml:space="preserve">
<style type="text/css">
	.st0{fill:#A6A6A6;}
	.st1{fill:#FFFFFF;}
</style>
<g>
	<g>
		<g>
			<path class="st0" d="M112.4,0H11.8c-0.4,0-0.7,0-1.1,0c-0.3,0-2.9,0.2-3.2,0.2c-0.7,0-1.3,0.1-2,0.2C4.9,0.4,4.2,0.7,3.6,1
				C3,1.3,2.5,1.7,2,2.1c-0.5,0.5-0.9,1-1.2,1.6C0.5,4.4,0.3,5,0.2,5.7C0.1,6.3,0,7,0,7.7C0,8,0,8.3,0,8.6v23.1c0,0.3,0,0.6,0,0.9
				c0,0.7,0.1,1.3,0.2,2c0.1,0.7,0.3,1.3,0.6,1.9c0.3,0.6,0.7,1.1,1.2,1.6c0.5,0.5,1,0.9,1.6,1.2c0.6,0.3,1.2,0.5,1.9,0.6
				c0.7,0.1,1.3,0.2,2,0.2c0.3,0,2.9-0.1,3.2-0.1c0.4,0,0.7,0,1.1,0h100.6c0.4,0,0.7,0,1.1,0c0.3,0,0.6,0,0.9,0c0.7,0,3.3,0.1,4,0
				c0.7-0.1,1.3-0.3,1.9-0.6c0.6-0.3,1.1-0.7,1.6-1.2c0.5-0.5,0.9-1,1.2-1.6c0.3-0.6,0.5-1.2,0.6-1.9c0.1-0.7,0.2-1.3,0.2-2
				c0-0.3,0-0.6,0-0.9c0-0.4,0-0.7,0-1.1V9.7c0-0.4,0-0.7,0-1.1c0-0.3,0-0.6,0-0.9c0-0.7-0.1-1.3-0.2-2c-0.1-0.7-0.3-1.3-0.6-1.9
				c-0.6-1.2-1.6-2.2-2.8-2.8c-0.6-0.3-1.2-0.5-1.9-0.6c-0.7-0.1-3.3-0.3-4-0.3c-0.3,0-0.6,0-0.9,0C113.1,0,112.8,0,112.4,0L112.4,0
				z"/>
			<path d="M10.7,39.1c-0.3,0-2.9,0.1-3.2,0.1c-0.6,0-1.3-0.1-1.9-0.2C5.1,39,4.5,38.8,4,38.5c-0.5-0.3-1-0.6-1.4-1
				c-0.4-0.4-0.8-0.9-1-1.4c-0.3-0.5-0.4-1.1-0.5-1.7c-0.1-0.6-0.2-1.2-0.2-1.9c0-0.2,0-0.9,0-0.9V8.6c0,0,0-0.7,0-0.9
				c0-0.6,0.1-1.3,0.2-1.9c0.1-0.6,0.3-1.1,0.5-1.7c0.3-0.5,0.6-1,1-1.4C3,2.3,3.5,2,4,1.7c0.5-0.3,1.1-0.4,1.7-0.5
				C6.3,1.1,6.9,1,7.5,1l3.2-0.2h102.8l0.9,0c0.6,0,3.2,0.2,3.8,0.3c0.6,0.1,1.1,0.3,1.7,0.5c1,0.5,1.9,1.4,2.4,2.4
				c0.3,0.5,0.4,1.1,0.5,1.6c0.1,0.6,0.2,1.3,0.2,1.9c0,0.3,0,0.6,0,0.9c0,0.4,0,0.7,0,1.1v20.9c0,0.4,0,0.7,0,1.1
				c0,0.3,0,0.6,0,0.9c0,0.6-0.1,1.2-0.2,1.9c-0.1,0.6-0.3,1.1-0.5,1.7c-0.3,0.5-0.6,1-1,1.4c-0.4,0.4-0.9,0.8-1.4,1
				c-0.5,0.3-1.1,0.5-1.7,0.5c-0.6,0.1-3.2,0-3.8,0c-0.3,0-0.6,0-0.9,0l-1.1,0L10.7,39.1z"/>
		</g>
		<g id="_Group_">
			<g id="_Group_2">
				<g id="_Group_3">
					<path id="_Path_" class="st1" d="M27,20.3c0-1.7,0.9-3.3,2.4-4.2c-0.9-1.3-2.4-2.1-4-2.2c-1.7-0.2-3.3,1-4.2,1
						c-0.9,0-2.2-1-3.6-1c-1.9,0.1-3.6,1.1-4.5,2.7c-1.9,3.3-0.5,8.3,1.4,11c0.9,1.3,2,2.8,3.4,2.8c1.4-0.1,1.9-0.9,3.6-0.9
						c1.7,0,2.1,0.9,3.6,0.9c1.5,0,2.4-1.3,3.3-2.7c0.7-0.9,1.2-2,1.5-3.1C28.2,24,27,22.2,27,20.3z"/>
					<path id="_Path_2" class="st1" d="M24.3,12.2c0.8-1,1.2-2.2,1.1-3.5c-1.2,0.1-2.4,0.7-3.2,1.7c-0.8,0.9-1.2,2.1-1.1,3.4
						C22.3,13.8,23.5,13.2,24.3,12.2z"/>
				</g>
			</g>
			<g>
				<path class="st1" d="M44.6,27.1h-4.7l-1.1,3.4h-2l4.5-12.4h2.1l4.5,12.4h-2L44.6,27.1z M40.3,25.6h3.8l-1.8-5.4h-0.1L40.3,25.6z
					"/>
				<path class="st1" d="M57.4,26c0,2.8-1.5,4.6-3.8,4.6c-1.2,0.1-2.3-0.6-2.8-1.6h0v4.5h-1.9v-12h1.8v1.5h0c0.6-1,1.7-1.6,2.9-1.6
					C55.9,21.3,57.4,23.2,57.4,26z M55.5,26c0-1.8-0.9-3-2.4-3c-1.4,0-2.4,1.2-2.4,3c0,1.8,1,3,2.4,3C54.6,29,55.5,27.8,55.5,26z"/>
				<path class="st1" d="M67.4,26c0,2.8-1.5,4.6-3.8,4.6c-1.2,0.1-2.3-0.6-2.8-1.6h0v4.5h-1.9v-12h1.8v1.5h0c0.6-1,1.7-1.6,2.9-1.6
					C65.9,21.3,67.4,23.2,67.4,26z M65.5,26c0-1.8-0.9-3-2.4-3c-1.4,0-2.4,1.2-2.4,3c0,1.8,1,3,2.4,3C64.5,29,65.5,27.8,65.5,26
					L65.5,26z"/>
				<path class="st1" d="M74,27c0.1,1.2,1.3,2,3,2c1.6,0,2.7-0.8,2.7-1.9c0-1-0.7-1.5-2.3-1.9l-1.6-0.4c-2.3-0.6-3.3-1.6-3.3-3.3
					c0-2.1,1.9-3.6,4.5-3.6c2.6,0,4.4,1.5,4.5,3.6h-1.9c-0.1-1.2-1.1-2-2.6-2s-2.5,0.8-2.5,1.9c0,0.9,0.7,1.4,2.3,1.8l1.4,0.3
					c2.5,0.6,3.6,1.6,3.6,3.4c0,2.3-1.9,3.8-4.8,3.8c-2.8,0-4.6-1.4-4.7-3.7L74,27z"/>
				<path class="st1" d="M85.6,19.3v2.1h1.7v1.5h-1.7v5c0,0.8,0.3,1.1,1.1,1.1c0.2,0,0.4,0,0.6,0v1.5c-0.3,0.1-0.7,0.1-1,0.1
					c-1.8,0-2.5-0.7-2.5-2.4v-5.2h-1.3v-1.5h1.3v-2.1H85.6z"/>
				<path class="st1" d="M88.3,26c0-2.8,1.7-4.6,4.3-4.6c2.6,0,4.3,1.8,4.3,4.6c0,2.9-1.7,4.6-4.3,4.6C90,30.6,88.3,28.8,88.3,26z
					 M95,26c0-2-0.9-3.1-2.4-3.1S90.2,24,90.2,26c0,2,0.9,3.1,2.4,3.1S95,27.9,95,26L95,26z"/>
				<path class="st1" d="M98.5,21.4h1.8V23h0c0.2-1,1.2-1.7,2.2-1.6c0.2,0,0.4,0,0.6,0.1v1.7c-0.3-0.1-0.6-0.1-0.8-0.1
					c-1,0-1.9,0.8-1.9,1.8c0,0.1,0,0.2,0,0.3v5.4h-1.9L98.5,21.4z"/>
				<path class="st1" d="M111.7,27.8c-0.2,1.6-1.9,2.8-3.9,2.8c-2.6,0-4.3-1.8-4.3-4.6c0-2.8,1.6-4.7,4.2-4.7c2.5,0,4.1,1.7,4.1,4.5
					v0.6h-6.4v0.1c-0.1,1.3,0.8,2.4,2.1,2.6c0.1,0,0.2,0,0.3,0c0.9,0.1,1.8-0.4,2.1-1.3L111.7,27.8z M105.4,25.1h4.5
					c0.1-1.2-0.9-2.2-2.1-2.3c-0.1,0-0.1,0-0.2,0C106.4,22.8,105.4,23.8,105.4,25.1C105.4,25.1,105.4,25.1,105.4,25.1z"/>
			</g>
		</g>
	</g>
	<g id="_Group_4">
		<g>
			<path class="st1" d="M40.1,8.7c1.5-0.1,2.7,1,2.8,2.4c0,0.2,0,0.3,0,0.5c0,1.9-1,3-2.8,3h-2.2v-6H40.1z M38.9,13.9H40
				c1,0.1,1.9-0.7,2-1.8c0-0.1,0-0.3,0-0.4c0.1-1-0.6-2-1.6-2.1c-0.1,0-0.2,0-0.4,0h-1.1V13.9z"/>
			<path class="st1" d="M44,12.4c-0.1-1.2,0.7-2.2,1.9-2.3c1.2-0.1,2.2,0.7,2.3,1.9c0,0.1,0,0.3,0,0.4c0.1,1.2-0.7,2.2-1.9,2.3
				c-1.2,0.1-2.2-0.7-2.3-1.9C43.9,12.7,43.9,12.6,44,12.4z M47.3,12.4c0-1-0.4-1.5-1.2-1.5c-0.8,0-1.2,0.6-1.2,1.5
				c0,1,0.4,1.6,1.2,1.6C46.9,14,47.3,13.4,47.3,12.4L47.3,12.4z"/>
			<path class="st1" d="M53.8,14.7h-0.9L52,11.4h-0.1L51,14.7h-0.9l-1.2-4.5h0.9l0.8,3.4h0.1l0.9-3.4h0.9l0.9,3.4h0.1l0.8-3.4h0.9
				L53.8,14.7z"/>
			<path class="st1" d="M56.1,10.2H57v0.7h0.1c0.2-0.5,0.8-0.8,1.3-0.8c0.8-0.1,1.5,0.5,1.6,1.4c0,0.1,0,0.2,0,0.3v2.9h-0.9V12
				c0-0.7-0.3-1.1-1-1.1c-0.6,0-1.1,0.4-1.1,1c0,0.1,0,0.1,0,0.2v2.6h-0.9L56.1,10.2z"/>
			<path class="st1" d="M61.4,8.4h0.9v6.3h-0.9V8.4z"/>
			<path class="st1" d="M63.5,12.4c-0.1-1.2,0.7-2.2,1.9-2.3c1.2-0.1,2.2,0.7,2.3,1.9c0,0.1,0,0.3,0,0.4c0.1,1.2-0.7,2.2-1.9,2.3
				c-1.2,0.1-2.2-0.7-2.3-1.9C63.5,12.7,63.5,12.6,63.5,12.4z M66.8,12.4c0-1-0.4-1.5-1.2-1.5c-0.8,0-1.2,0.6-1.2,1.5
				c0,1,0.4,1.6,1.2,1.6C66.4,14,66.8,13.4,66.8,12.4z"/>
			<path class="st1" d="M68.7,13.4c0-0.8,0.6-1.3,1.7-1.3l1.2-0.1v-0.4c0-0.5-0.3-0.7-0.9-0.7c-0.5,0-0.8,0.2-0.9,0.5h-0.9
				c0.1-0.8,0.8-1.3,1.8-1.3c1.1,0,1.8,0.6,1.8,1.5v3.1h-0.9v-0.6h-0.1c-0.3,0.5-0.8,0.7-1.4,0.7c-0.7,0.1-1.4-0.5-1.5-1.2
				C68.7,13.5,68.7,13.5,68.7,13.4z M71.6,13v-0.4l-1.1,0.1c-0.6,0-0.9,0.3-0.9,0.6c0,0.4,0.4,0.6,0.8,0.6
				C71,14.1,71.5,13.7,71.6,13C71.6,13.1,71.6,13.1,71.6,13z"/>
			<path class="st1" d="M73.6,12.4c0-1.4,0.7-2.3,1.9-2.3c0.6,0,1.1,0.3,1.4,0.8h0.1V8.4h0.9v6.3H77V14h-0.1
				c-0.3,0.5-0.8,0.8-1.4,0.8C74.3,14.8,73.6,13.9,73.6,12.4z M74.5,12.4c0,1,0.5,1.5,1.2,1.5c0.7,0,1.2-0.6,1.2-1.5
				c0-0.9-0.5-1.5-1.2-1.5C75,10.9,74.5,11.5,74.5,12.4L74.5,12.4z"/>
			<path class="st1" d="M81.5,12.4c-0.1-1.2,0.7-2.2,1.9-2.3s2.2,0.7,2.3,1.9c0,0.1,0,0.3,0,0.4c0.1,1.2-0.7,2.2-1.9,2.3
				c-1.2,0.1-2.2-0.7-2.3-1.9C81.5,12.7,81.5,12.6,81.5,12.4z M84.8,12.4c0-1-0.4-1.5-1.2-1.5c-0.8,0-1.2,0.6-1.2,1.5
				c0,1,0.4,1.6,1.2,1.6C84.4,14,84.8,13.4,84.8,12.4z"/>
			<path class="st1" d="M86.9,10.2h0.9v0.7h0.1c0.2-0.5,0.8-0.8,1.3-0.8c0.8-0.1,1.5,0.5,1.6,1.4c0,0.1,0,0.2,0,0.3v2.9h-0.9V12
				c0-0.7-0.3-1.1-1-1.1c-0.6,0-1.1,0.4-1.1,1c0,0.1,0,0.1,0,0.2v2.6h-0.9V10.2z"/>
			<path class="st1" d="M95.8,9.1v1.1h1V11h-1v2.3c0,0.5,0.2,0.7,0.6,0.7c0.1,0,0.2,0,0.3,0v0.7c-0.2,0-0.3,0-0.5,0
				c-1,0-1.4-0.3-1.4-1.2V11h-0.7v-0.7h0.7V9.1H95.8z"/>
			<path class="st1" d="M98,8.4h0.9v2.5h0.1c0.2-0.5,0.8-0.9,1.4-0.8c0.8,0,1.5,0.6,1.6,1.4c0,0.1,0,0.2,0,0.3v2.9H101V12
				c0-0.7-0.3-1.1-1-1.1c-0.6,0-1.1,0.4-1.1,1c0,0.1,0,0.1,0,0.2v2.6H98L98,8.4z"/>
			<path class="st1" d="M107,13.5c-0.2,0.8-1.1,1.4-2,1.3c-1.1,0-2.1-0.9-2.1-2c0-0.1,0-0.2,0-0.3c-0.2-1.1,0.6-2.2,1.8-2.3
				c0.1,0,0.2,0,0.3,0c1.3,0,2,0.9,2,2.3v0.3h-3.2v0c-0.1,0.7,0.4,1.2,1.1,1.3c0,0,0.1,0,0.1,0c0.4,0.1,0.9-0.2,1.1-0.5L107,13.5z
				 M103.9,12h2.3c0-0.6-0.4-1.1-1-1.2c0,0-0.1,0-0.1,0C104.4,10.9,103.9,11.4,103.9,12C103.9,12,103.9,12,103.9,12L103.9,12z"/>
		</g>
	</g>
</g>
</svg>
