<?xml version="1.0" encoding="utf-8"?>
<!-- Generator: Adobe Illustrator 26.0.0, SVG Export Plug-In . SVG Version: 6.00 Build 0)  -->
<svg version="1.1" id="Livello_1" xmlns="http://www.w3.org/2000/svg" xmlns:xlink="http://www.w3.org/1999/xlink" x="0px" y="0px"
	 viewBox="0 0 124.2 40" style="enable-background:new 0 0 124.2 40;" xml:space="preserve">
<style type="text/css">
	.st0{fill-rule:evenodd;clip-rule:evenodd;}
	.st1{fill-rule:evenodd;clip-rule:evenodd;fill:#A6A6A6;}
	.st2{opacity:0.2;fill-rule:evenodd;clip-rule:evenodd;enable-background:new    ;}
	.st3{fill:#FFFFFF;}
	.st4{fill-rule:evenodd;clip-rule:evenodd;fill:#FFFFFF;}
	.st5{fill-rule:evenodd;clip-rule:evenodd;fill:url(#SVGID_1_);}
	.st6{fill-rule:evenodd;clip-rule:evenodd;fill:url(#SVGID_00000037657882333875728930000013559280508047413435_);}
	.st7{fill-rule:evenodd;clip-rule:evenodd;fill:url(#SVGID_00000168811831724660318660000018157725789655899825_);}
	.st8{fill-rule:evenodd;clip-rule:evenodd;fill:url(#SVGID_00000049941359298415074680000012067551800401003422_);}
	.st9{opacity:0.12;fill-rule:evenodd;clip-rule:evenodd;enable-background:new    ;}
	.st10{opacity:0.25;fill-rule:evenodd;clip-rule:evenodd;fill:#FFFFFF;enable-background:new    ;}
</style>
<g>
	<path class="st0" d="M119.2,40H5c-2.8,0-5-2.3-5-5V5c0-2.8,2.3-5,5-5h114.2c2.8,0,5,2.2,5,5v30C124.2,37.7,122,40,119.2,40z"/>
	<path class="st1" d="M119.2,0.8c2.3,0,4.2,1.9,4.2,4.2v30c0,2.3-1.9,4.2-4.2,4.2H5c-2.3,0-4.2-1.9-4.2-4.2V5c0-2.3,1.9-4.2,4.2-4.2
		C5,0.8,119.2,0.8,119.2,0.8z M119.2,0H5C2.3,0,0,2.3,0,5v30c0,2.8,2.3,5,5,5h114.2c2.8,0,5-2.2,5-5V5C124.2,2.3,122,0,119.2,0z"/>
	<path class="st2" d="M27,24.1l-14.5,8.2c-0.8,0.5-1.5,0.4-2,0l-0.1,0.1l0.1,0.1c0.5,0.4,1.2,0.5,2,0L27,24.1L27,24.1z"/>
	<g>
		<path class="st3" d="M65.3,14.1c-0.8,0-1.5-0.3-2-0.8c-0.5-0.5-0.8-1.3-0.8-2c0-0.8,0.3-1.5,0.8-2c0.5-0.6,1.2-0.8,2-0.8
			c0.8,0,1.5,0.3,2,0.8c0.5,0.6,0.8,1.2,0.8,2c0,0.8-0.3,1.5-0.8,2C66.8,13.8,66.1,14.1,65.3,14.1z M41.6,14.1c-0.8,0-1.5-0.3-2-0.8
			c-0.6-0.5-0.8-1.2-0.8-2c0-0.8,0.3-1.5,0.8-2c0.5-0.5,1.2-0.8,2-0.8c0.4,0,0.8,0.1,1.1,0.2C43,8.8,43.3,9,43.5,9.2l0.1,0.1L43,9.9
			l-0.1-0.1c-0.3-0.4-0.8-0.6-1.4-0.6c-0.5,0-1,0.2-1.4,0.6c-0.4,0.4-0.6,0.9-0.6,1.5c0,0.6,0.2,1.1,0.6,1.5
			c0.4,0.4,0.8,0.6,1.4,0.6c0.6,0,1-0.2,1.4-0.6c0.2-0.2,0.4-0.5,0.4-0.9h-1.9V11h2.7l0,0.1c0,0.1,0,0.3,0,0.4
			c0,0.8-0.2,1.4-0.7,1.8C43.1,13.8,42.4,14.1,41.6,14.1z M73.2,14h-0.8l-2.6-4.1l0,0.7V14h-0.8V8.5h1l0,0l2.4,3.9l0-0.7V8.5h0.9
			L73.2,14L73.2,14z M59,14h-0.9V9.3h-1.5V8.5h3.8v0.8H59L59,14L59,14z M56,14h-0.9V8.5H56V14z M51.2,14h-0.9V9.3h-1.5V8.5h3.8v0.8
			h-1.5V14z M48.3,14H45V8.5h3.3v0.8h-2.4v1.5h2.2v0.8h-2.2v1.5h2.4V14z M63.9,12.7c0.4,0.4,0.8,0.6,1.4,0.6c0.6,0,1-0.2,1.4-0.6
			c0.4-0.4,0.6-0.9,0.6-1.5s-0.2-1.1-0.6-1.5c-0.4-0.4-0.8-0.6-1.4-0.6c-0.6,0-1,0.2-1.4,0.6c-0.4,0.4-0.6,0.9-0.6,1.5
			S63.6,12.3,63.9,12.7L63.9,12.7z"/>
		<path class="st4" d="M62.4,21.6c-2.1,0-3.8,1.6-3.8,3.8c0,2.2,1.7,3.8,3.8,3.8c2.1,0,3.8-1.6,3.8-3.8
			C66.2,23.2,64.5,21.6,62.4,21.6z M62.4,27.6c-1.1,0-2.1-0.9-2.1-2.3c0-1.4,1-2.3,2.1-2.3c1.1,0,2.1,0.9,2.1,2.3
			C64.6,26.7,63.6,27.6,62.4,27.6z M54.2,21.6c-2.1,0-3.8,1.6-3.8,3.8c0,2.2,1.7,3.8,3.8,3.8c2.1,0,3.8-1.6,3.8-3.8
			C58,23.2,56.3,21.6,54.2,21.6z M54.2,27.6c-1.1,0-2.1-0.9-2.1-2.3c0-1.4,1-2.3,2.1-2.3c1.1,0,2.1,0.9,2.1,2.3
			C56.3,26.7,55.4,27.6,54.2,27.6z M44.4,22.7v1.6h3.8c-0.1,0.9-0.4,1.5-0.9,2c-0.6,0.6-1.4,1.2-2.9,1.2c-2.3,0-4.2-1.9-4.2-4.2
			s1.8-4.2,4.2-4.2c1.3,0,2.2,0.5,2.9,1.1l1.1-1.1c-1-0.9-2.2-1.6-4-1.6c-3.2,0-5.9,2.6-5.9,5.8c0,3.2,2.7,5.8,5.9,5.8
			c1.7,0,3-0.6,4.1-1.6c1-1,1.4-2.5,1.4-3.7c0-0.4,0-0.7-0.1-1L44.4,22.7C44.4,22.7,44.4,22.7,44.4,22.7z M84.4,24
			c-0.3-0.8-1.3-2.4-3.2-2.4c-1.9,0-3.5,1.5-3.5,3.8c0,2.1,1.6,3.8,3.7,3.8c1.7,0,2.7-1,3.1-1.7l-1.3-0.9c-0.4,0.6-1,1-1.8,1
			c-0.8,0-1.4-0.4-1.8-1.1l5-2.1C84.6,24.4,84.4,24,84.4,24z M79.3,25.2c0-1.4,1.1-2.2,2-2.2c0.7,0,1.2,0.3,1.4,0.8L79.3,25.2z
			 M75.2,28.9h1.6v-11h-1.6V28.9z M72.5,22.4L72.5,22.4c-0.4-0.4-1.1-0.8-2-0.8c-1.9,0-3.6,1.6-3.6,3.8c0,2.1,1.7,3.7,3.6,3.7
			c0.9,0,1.6-0.4,2-0.9h0.1v0.5c0,1.4-0.8,2.2-2,2.2c-1,0-1.6-0.7-1.9-1.3l-1.4,0.6c0.4,1,1.5,2.2,3.3,2.2c1.9,0,3.6-1.1,3.6-3.9
			v-6.7h-1.6L72.5,22.4C72.5,22.4,72.5,22.4,72.5,22.4z M70.6,27.6c-1.1,0-2.1-1-2.1-2.3c0-1.3,1-2.3,2.1-2.3c1.1,0,2,1,2,2.3
			C72.6,26.7,71.8,27.6,70.6,27.6z M92.1,17.8h-3.9v11h1.6v-4.2h2.3c1.8,0,3.6-1.3,3.6-3.4S94,17.8,92.1,17.8z M92.2,23.2h-2.3v-3.8
			h2.3c1.2,0,1.9,1,1.9,1.9C94.1,22.1,93.4,23.2,92.2,23.2z M102.4,21.6c-1.2,0-2.4,0.5-2.9,1.7l1.5,0.6c0.3-0.6,0.9-0.8,1.5-0.8
			c0.9,0,1.7,0.5,1.7,1.4v0.1c-0.3-0.2-0.9-0.4-1.7-0.4c-1.6,0-3.2,0.9-3.2,2.5c0,1.5,1.3,2.4,2.7,2.4c1.1,0,1.7-0.5,2.1-1.1h0.1
			v0.9h1.6v-4.2C105.7,22.7,104.2,21.6,102.4,21.6z M102.2,27.6c-0.5,0-1.3-0.3-1.3-0.9c0-0.9,0.9-1.2,1.7-1.2
			c0.7,0,1.1,0.2,1.5,0.4C104,26.9,103.2,27.6,102.2,27.6z M111.5,21.8l-1.9,4.8h-0.1l-2-4.8h-1.8l2.9,6.7l-1.7,3.7h1.7l4.5-10.4
			H111.5z M96.7,28.9h1.6v-11h-1.6V28.9z"/>
		<g>
			<g>
				
					<linearGradient id="SVGID_1_" gradientUnits="userSpaceOnUse" x1="781.3814" y1="-783.992" x2="780.1094" y2="-783.3354" gradientTransform="matrix(11.64 0 0 22.55 -9073.7227 17689.1055)">
					<stop  offset="0" style="stop-color:#00A0FF"/>
					<stop  offset="6.569999e-03" style="stop-color:#00A1FF"/>
					<stop  offset="0.2601" style="stop-color:#00BEFF"/>
					<stop  offset="0.5122" style="stop-color:#00D2FF"/>
					<stop  offset="0.7604" style="stop-color:#00DFFF"/>
					<stop  offset="1" style="stop-color:#00E3FF"/>
				</linearGradient>
				<path class="st5" d="M11.5,9.1c-0.3,0.3-0.4,0.7-0.4,1.2v19.5c0,0.6,0.1,1,0.4,1.2l0.1,0.1l10.9-10.9v-0.2L11.5,9.1L11.5,9.1z"
					/>
				
					<linearGradient id="SVGID_00000008147528134420991370000017947918520590592651_" gradientUnits="userSpaceOnUse" x1="761.5573" y1="-760.2736" x2="759.223" y2="-760.2736" gradientTransform="matrix(9.145 0 0 7.7 -6932.2661 5874.1553)">
					<stop  offset="0" style="stop-color:#FFE000"/>
					<stop  offset="0.4087" style="stop-color:#FFBD00"/>
					<stop  offset="0.7754" style="stop-color:#FFA500"/>
					<stop  offset="1" style="stop-color:#FF9C00"/>
				</linearGradient>
				<path style="fill-rule:evenodd;clip-rule:evenodd;fill:url(#SVGID_00000008147528134420991370000017947918520590592651_);" d="
					M26.2,23.8l-3.6-3.6v-0.3l3.6-3.6l0.1,0l4.3,2.5c1.2,0.7,1.2,1.8,0,2.5L26.2,23.8C26.3,23.8,26.2,23.8,26.2,23.8z"/>
				
					<linearGradient id="SVGID_00000167375581448090742190000015358004167370761622_" gradientUnits="userSpaceOnUse" x1="797.7918" y1="-772.4422" x2="796.455" y2="-770.7079" gradientTransform="matrix(15.02 0 0 11.5775 -11958.6055 8965.0254)">
					<stop  offset="0" style="stop-color:#FF3A44"/>
					<stop  offset="1" style="stop-color:#C31162"/>
				</linearGradient>
				<path style="fill-rule:evenodd;clip-rule:evenodd;fill:url(#SVGID_00000167375581448090742190000015358004167370761622_);" d="
					M26.3,23.8L22.5,20l-11,11c0.4,0.4,1.1,0.5,1.8,0.1L26.3,23.8"/>
				
					<linearGradient id="SVGID_00000018925773525164693300000015517167776412801972_" gradientUnits="userSpaceOnUse" x1="796.7621" y1="-773.114" x2="797.359" y2="-772.3392" gradientTransform="matrix(15.02 0 0 11.5715 -11958.6055 8948.6504)">
					<stop  offset="0" style="stop-color:#32A071"/>
					<stop  offset="6.850000e-02" style="stop-color:#2DA771"/>
					<stop  offset="0.4762" style="stop-color:#15CF74"/>
					<stop  offset="0.8009" style="stop-color:#06E775"/>
					<stop  offset="1" style="stop-color:#00F076"/>
				</linearGradient>
				<path style="fill-rule:evenodd;clip-rule:evenodd;fill:url(#SVGID_00000018925773525164693300000015517167776412801972_);" d="
					M26.3,16.3L13.4,9c-0.8-0.4-1.4-0.4-1.8,0.1l11,11L26.3,16.3z"/>
			</g>
			<path class="st9" d="M30.6,21.2l-4.4,2.5l0.1,0.1l4.3-2.5c0.6-0.4,0.9-0.8,0.9-1.3C31.4,20.5,31.1,20.9,30.6,21.2z"/>
			<path class="st10" d="M13.4,9.1l17.2,9.8c0.6,0.3,0.9,0.7,0.9,1.1c0-0.5-0.3-0.9-0.9-1.3L13.4,9c-1.2-0.7-2.2-0.1-2.2,1.3v0.1
				C11.1,9,12.1,8.4,13.4,9.1z"/>
		</g>
	</g>
</g>
</svg>
