<svg xmlns="http://www.w3.org/2000/svg" width="15.026" height="15.026" viewBox="0 0 15.026 15.026">
  <g id="Group_709" data-name="Group 709" transform="translate(0 0)">
    <ellipse id="Ellipse_17" data-name="Ellipse 17" cx="6.527" cy="6.399" rx="6.527" ry="6.399" transform="translate(0.984 0.984)" fill="#fff"/>
    <path id="Icon_awesome-check-circle" data-name="Icon awesome-check-circle" d="M15.589,8.076A7.513,7.513,0,1,1,8.076.563,7.513,7.513,0,0,1,15.589,8.076ZM7.207,12.054,12.781,6.48a.485.485,0,0,0,0-.685L12.1,5.109a.485.485,0,0,0-.686,0L6.864,9.655,4.741,7.532a.485.485,0,0,0-.686,0l-.685.685a.485.485,0,0,0,0,.685l3.151,3.151A.485.485,0,0,0,7.207,12.054Z" transform="translate(-0.563 -0.563)" fill="#86b530"/>
  </g>
</svg>
