<svg xmlns="http://www.w3.org/2000/svg" width="23" height="25.556" viewBox="0 0 23 25.556">
  <path id="Icon_material-event-note" data-name="Icon material-event-note" d="M22.389,13H9.611v2.556H22.389Zm2.556-8.944H23.667V1.5H21.111V4.056H10.889V1.5H8.333V4.056H7.056A2.544,2.544,0,0,0,4.513,6.611L4.5,24.5a2.555,2.555,0,0,0,2.556,2.556H24.944A2.563,2.563,0,0,0,27.5,24.5V6.611A2.563,2.563,0,0,0,24.944,4.056Zm0,20.444H7.056V10.444H24.944Zm-6.389-6.389H9.611v2.556h8.944Z" transform="translate(-4.5 -1.5)" fill="#954b1e"/>
</svg>
