<svg xmlns="http://www.w3.org/2000/svg" width="22.106" height="22.144" viewBox="0 0 22.106 22.144">
  <path id="Icon_feather-phone-call" data-name="Icon feather-phone-call" d="M15.556,5.33a4.787,4.787,0,0,1,3.782,3.782M15.556,1.5a8.617,8.617,0,0,1,7.612,7.6m-.957,7.641v2.872a1.915,1.915,0,0,1-2.087,1.915,18.949,18.949,0,0,1-8.263-2.939,18.671,18.671,0,0,1-5.745-5.745,18.949,18.949,0,0,1-2.939-8.3A1.915,1.915,0,0,1,5.081,2.457H7.953A1.915,1.915,0,0,1,9.868,4.1a12.294,12.294,0,0,0,.67,2.691,1.915,1.915,0,0,1-.431,2.02L8.892,10.031a15.32,15.32,0,0,0,5.745,5.745l1.216-1.216a1.915,1.915,0,0,1,2.02-.431,12.294,12.294,0,0,0,2.691.67A1.915,1.915,0,0,1,22.21,16.743Z" transform="translate(-2.167 -0.396)" fill="none" stroke="#fff" stroke-linecap="round" stroke-linejoin="round" stroke-width="2"/>
</svg>
