<svg xmlns="http://www.w3.org/2000/svg" width="42" height="42" viewBox="0 0 42 42">
  <g id="Group_103" data-name="Group 103" transform="translate(-1229 -1829)">
    <g id="Ellipse_14" data-name="Ellipse 14" transform="translate(1229 1829)" fill="none" stroke="#693" stroke-width="1">
      <circle cx="21" cy="21" r="21" stroke="none"/>
      <circle cx="21" cy="21" r="20.5" fill="none"/>
    </g>
    <path id="Icon_awesome-check" data-name="Icon awesome-check" d="M6.456,18.473.278,12.3a.95.95,0,0,1,0-1.344L1.622,9.607a.95.95,0,0,1,1.344,0l4.161,4.161,8.913-8.913a.95.95,0,0,1,1.344,0L18.729,6.2a.95.95,0,0,1,0,1.344L7.8,18.473A.95.95,0,0,1,6.456,18.473Z" transform="translate(1240.496 1838.336)" fill="#693"/>
  </g>
</svg>
