<svg xmlns="http://www.w3.org/2000/svg" width="57.463" height="57.463" viewBox="0 0 57.463 57.463">
  <path id="Icon_awesome-check-circle" data-name="Icon awesome-check-circle" d="M58.025,29.294A28.731,28.731,0,1,1,29.294.563,28.731,28.731,0,0,1,58.025,29.294ZM25.971,44.507,47.287,23.19a1.854,1.854,0,0,0,0-2.621l-2.621-2.621a1.854,1.854,0,0,0-2.622,0L24.66,35.332l-8.117-8.117a1.854,1.854,0,0,0-2.622,0L11.3,29.837a1.854,1.854,0,0,0,0,2.621L23.349,44.507a1.854,1.854,0,0,0,2.622,0Z" transform="translate(-0.563 -0.563)" fill="#954b1e"/>
</svg>
