<svg xmlns="http://www.w3.org/2000/svg" width="23.917" height="23.917" viewBox="0 0 23.917 23.917">
  <path id="Icon_material-account-circle" data-name="Icon material-account-circle" d="M14.958,3A11.958,11.958,0,1,0,26.917,14.958,11.963,11.963,0,0,0,14.958,3Zm0,3.587a3.587,3.587,0,1,1-3.587,3.587A3.583,3.583,0,0,1,14.958,6.587Zm0,16.981a8.611,8.611,0,0,1-7.175-3.851c.036-2.38,4.783-3.683,7.175-3.683s7.139,1.3,7.175,3.683a8.611,8.611,0,0,1-7.175,3.851Z" transform="translate(-3 -3)" fill="#fff"/>
</svg>
