<svg id="Icon_ionic-ios-chatboxes" data-name="Icon ionic-ios-chatboxes" xmlns="http://www.w3.org/2000/svg" width="19.787" height="19.791" viewBox="0 0 19.787 19.791">
  <path id="Path_50" data-name="Path 50" d="M24.042,11.981H13.5a1.815,1.815,0,0,0-1.813,1.813v7.341A1.811,1.811,0,0,0,13.5,22.943h6.033a.52.52,0,0,1,.362.152l3,2.764c.167.162.442.1.442-.138V23.314c0-.285.181-.376.466-.376h.048a1.98,1.98,0,0,0,2-1.808V13.794A1.805,1.805,0,0,0,24.042,11.981Z" transform="translate(-6.062 -6.158)" fill="#fff"/>
  <path id="Path_51" data-name="Path 51" d="M9.389,8.033h8.44V4.926a1.551,1.551,0,0,0-1.551-1.551H4.926A1.551,1.551,0,0,0,3.375,4.926v7.86a1.551,1.551,0,0,0,1.551,1.551H7.833V9.584A1.558,1.558,0,0,1,9.389,8.033Z" transform="translate(-3.375 -3.375)" fill="#fff"/>
</svg>
